<svg width="30" height="30" viewBox="0 0 30 30" fill="none" xmlns="http://www.w3.org/2000/svg">
<path d="M0 9.92578V15.4386C1.89789 15.4373 3.77742 15.8074 5.53104 16.5279C7.28466 17.2484 8.87795 18.305 10.2197 19.6373C11.5612 20.9691 12.625 22.5503 13.3504 24.2905C14.0759 26.0306 14.4486 27.8957 14.4474 29.7789H19.9974C19.9924 24.5158 17.884 19.4695 14.135 15.7475C10.3859 12.0255 5.30245 9.9318 0 9.92578H0Z" fill="#333333"/>
<path d="M27.7526 0H18.957C23.4065 2.79882 27.1767 6.54054 29.997 10.9567V2.22628C29.9966 1.63569 29.76 1.06943 29.3391 0.651967C28.9182 0.234503 28.3476 -1.46138e-07 27.7526 0V0Z" fill="#333333"/>
<path d="M5.52632 0H0V4.96349C6.62823 4.97033 12.983 7.58686 17.67 12.2389C22.3569 16.891 24.9932 23.1986 25.0003 29.7778H30V24.2924C28.8696 18.2636 25.9263 12.7159 21.5578 8.3797C17.1892 4.04349 11.6001 1.12205 5.52632 0V0Z" fill="#333333"/>
</svg>
